<svg xmlns="http://www.w3.org/2000/svg" viewBox="0 0 347.4 347.4"><path fill="#104572" d="M187.9 184.2l103 21.4-99.4-34.7 88-57.7-94.6 45.6L206.2 56l-34.7 99.1-57.6-87.8 45.5 94.6-102.8-21.3 99.1 34.7-87.8 57.6 94.7-45.7-21.4 103 34.7-99.3 57.6 87.9z"/><path fill="#104572" d="M233.1 199.9l115.6-47.6L224.9 134l45.9-85-70.9 65.2L152.3-1.3l-18.7 123.5-85-46.1 65.2 71.4-115.1 47.6 123 18.7-45.6 84.6 71.1-64.6 47.9 114.9 18.3-123.3 85 45.9z"/><circle class="outer-ring" cx="173.7" cy="173.7" r="100.6" fill="#0094d9"/><circle class="inner-ring-sm" cx="173.7" cy="173.7" r="51" fill="#fff" stroke="#104572" stroke-width="14"/><radialGradient id="innerGradient" cx="160.475" cy="209.96" r="73.63" gradientTransform="matrix(1 0 0 1 0 -50)" gradientUnits="userSpaceOnUse"><stop  offset="0" style="stop-color:#0095D9"/><stop  offset="1" style="stop-color:#006190"/></radialGradient><circle class="inner-ring" cx="173.7" cy="173.1" r="69" fill="url(#innerGradient)" stroke="#104572" stroke-width="14"/><path class="island" d="M57.9 181.9c1 1.4 2 2.7 3.2 3.9 2.3 1.3 5 1.9 7.7 1.6 2.7-.4 4.9-2.1 6-4.6-1.6-1-3.1-2.2-4.5-3.4l-12.4 2.5zm30.1 8.3c-2.2.6-4.3 1.8-6 3.4-2.2 2.3-1.3 5.4.5 8.1 6.3 3.4 12.9 6.2 19.6 8.5 2.8-2 6.1-6.2 4.5-14.8-6.4-.9-12.6-2.6-18.6-5.2zm143.9 19.4c12.4-6.2 20-14.8 20-25.6 0-13.8-36.3-64.8-73.3-75.3l4.8 10.2 13.4 1.1s8.4 17-2.6 41.5c-3 6.9-8.9 12.7-16 17.4l2.6 3.2s13-6.9 18.3-20.1c4.8-11.8 5.9-26.7 5.9-26.7s14.7 1.2 13.6 10.8-14 11.7-14 11.7 6.4 5.1 3.5 11.8c-4.2 8.1-14.1 6.1-14.1 6.1s.3 16.4-11 16.4c-6 0-9.4-5.4-11.1-9.5-14.2 7.3-32 11.3-47.2 12.7 1.1 5 1.7 13.2-3.3 20.3 14.4 3.1 31.6 5.1 52.4 5.1 3.1 0 6.2-.1 9.2-.2 6.4-7.4 27.1-10.9 48.9-10.9z" fill="#fff"/></svg>