<?xml version="1.0" encoding="utf-8"?>
<!-- Generator: Adobe Illustrator 24.0.2, SVG Export Plug-In . SVG Version: 6.00 Build 0)  -->
<svg version="1.1" id="Layer_1" xmlns="http://www.w3.org/2000/svg" xmlns:xlink="http://www.w3.org/1999/xlink" x="0px" y="0px"
	 viewBox="0 0 80 80" style="enable-background:new 0 0 80 80;" xml:space="preserve">
<style type="text/css">
	.st0{fill:#104572;}
	.st1{fill:#0094D9;}
	.st2{fill:#FFFFFF;}
</style>
<g>
	<polygon class="st0" points="32.7,50 0.4,45.1 30.6,32.6 35.5,0.2 48,30.5 80.4,35.3 50.1,47.8 45.3,80.2 	"/>
	<polygon class="st0" points="41.3,47.6 18.1,68.7 33,41.1 11.8,17.9 39.5,32.9 62.6,11.7 47.7,39.3 68.9,62.5 	"/>
</g>
<circle class="st1" cx="40.4" cy="40.2" r="23"/>
<g>
	<path class="st2" d="M40.4,52.7c-6.9,0-12.5-5.6-12.5-12.5c0-6.9,5.6-12.5,12.5-12.5c6.9,0,12.5,5.6,12.5,12.5
		C52.9,47.1,47.3,52.7,40.4,52.7z"/>
	<path class="st0" d="M40.4,29.2c6.1,0,11,4.9,11,11c0,6.1-4.9,11-11,11c-6.1,0-11-4.9-11-11C29.4,34.1,34.3,29.2,40.4,29.2
		 M40.4,26.2c-7.7,0-14,6.3-14,14c0,7.7,6.3,14,14,14s14-6.3,14-14C54.4,32.5,48.1,26.2,40.4,26.2L40.4,26.2z"/>
</g>
</svg>
