<svg id="Layer_1" data-name="Layer 1" xmlns="http://www.w3.org/2000/svg" viewBox="0 0 162.5 252.5"><title>window-style_01</title><rect x="6.92" y="1.25" width="148" height="226.03" stroke-width="2.5" stroke="currentColor" stroke-linecap="round" stroke-linejoin="round" fill="none"/><rect x="90.93" y="126.14" width="218.2" height="132" transform="translate(273.06 -81.85) rotate(90)" stroke-width="2" stroke="currentColor" stroke-linecap="round" stroke-linejoin="round" fill="none"/><rect x="146.49" y="174.11" width="107.09" height="132" transform="translate(321.03 -33.88) rotate(90)" stroke-width="2" stroke="currentColor" stroke-linecap="round" stroke-linejoin="round" fill="none"/><rect x="152.19" y="184.64" width="95.67" height="116" transform="translate(323.56 -31.35) rotate(90)" stroke-width="1.5" stroke="currentColor" stroke-linecap="round" stroke-linejoin="round" fill="none"/><rect x="1.25" y="227.43" width="160" height="7.83" stroke-width="2.5" stroke="currentColor" stroke-linecap="round" stroke-linejoin="round" fill="none"/><rect x="137.2" y="199.63" width="44.33" height="34.67" fill="none" stroke="currentColor" stroke-linecap="round" stroke-linejoin="round" transform="translate(257.22 -16.36) rotate(90)"/><rect x="218.53" y="199.63" width="44.33" height="34.67" fill="none" stroke="currentColor" stroke-linecap="round" stroke-linejoin="round" transform="translate(338.55 -97.69) rotate(90)"/><rect x="177.87" y="199.63" width="44.33" height="34.67" fill="none" stroke="currentColor" stroke-linecap="round" stroke-linejoin="round" transform="translate(297.88 -57.02) rotate(90)"/><rect x="137.2" y="250.98" width="44.33" height="34.67" fill="none" stroke="currentColor" stroke-linecap="round" stroke-linejoin="round" transform="translate(308.56 34.99) rotate(90)"/><rect x="218.53" y="250.98" width="44.33" height="34.67" fill="none" stroke="currentColor" stroke-linecap="round" stroke-linejoin="round" transform="translate(389.89 -46.35) rotate(90)"/><rect x="177.87" y="250.98" width="44.33" height="34.67" fill="none" stroke="currentColor" stroke-linecap="round" stroke-linejoin="round" transform="translate(349.23 -5.68) rotate(90)"/><rect x="152.19" y="80.7" width="95.67" height="116" transform="translate(219.62 -135.29) rotate(90)" stroke-width="1.5" stroke="currentColor" stroke-linecap="round" stroke-linejoin="round" fill="none"/><rect x="137.2" y="95.7" width="44.33" height="34.67" fill="none" stroke="currentColor" stroke-linecap="round" stroke-linejoin="round" transform="translate(153.28 -120.29) rotate(90)"/><rect x="218.53" y="95.7" width="44.33" height="34.67" fill="none" stroke="currentColor" stroke-linecap="round" stroke-linejoin="round" transform="translate(234.61 -201.63) rotate(90)"/><rect x="177.87" y="95.7" width="44.33" height="34.67" fill="none" stroke="currentColor" stroke-linecap="round" stroke-linejoin="round" transform="translate(193.95 -160.96) rotate(90)"/><rect x="137.2" y="147.04" width="44.33" height="34.67" fill="none" stroke="currentColor" stroke-linecap="round" stroke-linejoin="round" transform="translate(204.62 -68.95) rotate(90)"/><rect x="218.53" y="147.04" width="44.33" height="34.67" fill="none" stroke="currentColor" stroke-linecap="round" stroke-linejoin="round" transform="translate(285.96 -150.28) rotate(90)"/><rect x="177.87" y="147.04" width="44.33" height="34.67" fill="none" stroke="currentColor" stroke-linecap="round" stroke-linejoin="round" transform="translate(245.29 -109.62) rotate(90)"/><rect x="7.36" y="235.25" width="148" height="16" stroke-width="2.5" stroke="currentColor" stroke-linecap="round" stroke-linejoin="round" fill="none"/></svg>