<svg id="Layer_1" data-name="Layer 1" xmlns="http://www.w3.org/2000/svg" viewBox="0 0 347.39 347.39"><defs><style>.cls-1{fill:#104572}.cls-4{fill:#fff}</style><radialGradient id="radial-gradient" cx="160.48" cy="160.59" r="73.63" gradientUnits="userSpaceOnUse"><stop offset="0" stop-color="#0095d9"/><stop offset="1" stop-color="#006190"/></radialGradient></defs><path class="cls-1" d="M178.91 182.92L141.22 290.8l23.25-111.89-107.88-37.69 111.89 23.25 37.69-107.88-23.25 111.89 107.88 37.69-111.89-23.25z"/><path class="cls-1" d="M183.91 176.53l49.63 102.93-62.68-95.55-102.93 49.63 95.55-62.68-49.62-102.93 62.67 95.55 102.93-49.62-95.55 62.67z"/><path class="cls-1" d="M146.11 209L0 195.02l138.39-48.91L152.37 0l48.91 138.39 146.11 13.98L209 201.28l-13.98 146.11L146.11 209z"/><path class="cls-1" d="M176.66 197.86l-90.93 88.43 63.8-109.63L61.1 85.73l109.63 63.8 90.93-88.43-63.8 109.63 88.43 90.93-109.63-63.8z"/><circle cx="173.7" cy="173.7" r="100" fill="#0094d9"/><circle cx="173.7" cy="173.7" r="69" fill="url(#radial-gradient)"/><path class="cls-1" d="M200.44 137.67a62 62 0 1 1-62 62 62.07 62.07 0 0 1 62-62m0-14a76 76 0 1 0 76 76 76 76 0 0 0-76-76z" transform="translate(-26.75 -25.97)"/><path class="cls-4" d="M84.67 208.53a31.91 31.91 0 0 0 3.19 3.87 13.72 13.72 0 0 0 7.67 1.65 7.82 7.82 0 0 0 6-4.57 55.89 55.89 0 0 1-4.53-3.35zM114.8 216.77a14.17 14.17 0 0 0-6 3.35c-2.24 2.32-1.27 5.42.47 8.13a131 131 0 0 0 19.62 8.49c2.8-2 6.11-6.19 4.51-14.79a66.69 66.69 0 0 1-18.6-5.18zM258.66 236.2c12.41-6.18 20-14.82 20-25.65 0-13.8-36.27-64.8-73.27-75.29l4.84 10.19 13.41 1.12s8.44 17-2.6 41.52C218 195 212.19 200.78 205 205.46l2.64 3.22s13-6.92 18.32-20.1c4.8-11.8 5.91-26.73 5.91-26.73s14.66 1.21 13.56 10.78-14 11.73-14 11.73 6.37 5.11 3.47 11.81c-4.25 8.05-14.14 6.13-14.14 6.13s.28 16.35-11 16.35c-6 0-9.38-5.4-11.07-9.53-14.16 7.27-32 11.28-47.22 12.66 1.07 5 1.68 13.24-3.28 20.28 14.35 3.11 31.64 5.12 52.36 5.12q4.68 0 9.23-.21c6.4-7.29 27.07-10.76 48.88-10.77z" transform="translate(-26.75 -25.97)"/></svg>