<svg xmlns="http://www.w3.org/2000/svg" viewBox="0 0 100 57.7"><path fill="rgba(255,255,255,.4)" d="M0 37.8s.5.8 1.6 2c1.2.6 2.6 1 4 .9 1.6-.2 2.5-1.2 3.1-2.4-1.5-1-2.3-1.7-2.3-1.7L0 37.8zM15.5 42c-1.2.4-2.3.9-3.1 1.7-1.2 1.2-.7 2.8.2 4.2 2.8 1.5 6.1 3 10.1 4.4 1.4-1 3.2-3.2 2.3-7.6-3.4-.4-6.7-1.5-9.5-2.7zM89.7 52c6.4-3.2 10.3-7.6 10.3-13.2C100 31.7 81.3 5.4 62.2 0l2.5 5.3 6.9.6s4.4 8.8-1.3 21.4c-1.6 3.6-4.6 6.5-8.3 9l1.4 1.7s6.7-3.6 9.4-10.4c2.5-6.1 3-13.8 3-13.8s7.6.6 7 5.6c-.6 4.9-7.2 6-7.2 6s3.3 2.6 1.8 6.1c-2.2 4.1-7.3 3.2-7.3 3.2s.1 8.4-5.7 8.4c-3.1 0-4.8-2.8-5.7-4.9-7.3 3.7-16.5 5.8-24.3 6.5.6 2.6.9 6.8-1.7 10.5 7.4 1.6 16.3 2.6 27 2.6 1.6 0 3.2 0 4.8-.1 3.3-3.9 13.9-5.7 25.2-5.7z"/></svg>