<svg xmlns="http://www.w3.org/2000/svg" viewBox="0 0 80 80"><style>.st0{fill:#104572}</style><path class="st0" d="M32.7 50L.4 45.1l30.2-12.5L35.5.2 48 30.5l32.4 4.8-30.3 12.5-4.8 32.4z"/><path class="st0" d="M41.3 47.6L18.1 68.7 33 41.1 11.8 17.9l27.7 15 23.1-21.2-14.9 27.6 21.2 23.2z"/><circle cx="40.4" cy="40.2" r="23" fill="#0094d9"/><g><path d="M40.4 52.7c-6.9 0-12.5-5.6-12.5-12.5s5.6-12.5 12.5-12.5 12.5 5.6 12.5 12.5-5.6 12.5-12.5 12.5z" fill="#fff"/><path class="st0" d="M40.4 29.2c6.1 0 11 4.9 11 11s-4.9 11-11 11-11-4.9-11-11 4.9-11 11-11m0-3c-7.7 0-14 6.3-14 14s6.3 14 14 14 14-6.3 14-14-6.3-14-14-14z"/></g></svg>